Coordinates
version=1
nRows=6
nColumns=63
inDegrees=yes

Units are S.I. units (second, meters, Newtons, ...)
If the header above contains a line with 'inDegrees', this indicates whether rotational values are in degrees (yes) or radians (no).

endheader
time	pelvis_tilt	pelvis_list	pelvis_rotation	pelvis_tx	pelvis_ty	pelvis_tz	hip_flexion_r	hip_adduction_r	hip_rotation_r	knee_angle_r	knee_angle_r_beta	ankle_angle_r	subtalar_angle_r	mtp_angle_r	hip_flexion_l	hip_adduction_l	hip_rotation_l	knee_angle_l	knee_angle_l_beta	ankle_angle_l	subtalar_angle_l	mtp_angle_l	L5_S1_Flex_Ext	L5_S1_Lat_Bending	L5_S1_axial_rotation	L4_L5_Flex_Ext	L4_L5_Lat_Bending	L4_L5_axial_rotation	L3_L4_Flex_Ext	L3_L4_Lat_Bending	L3_L4_axial_rotation	L2_L3_Flex_Ext	L2_L3_Lat_Bending	L2_L3_axial_rotation	L1_L2_Flex_Ext	L1_L2_Lat_Bending	L1_L2_axial_rotation	L1_T12_Flex_Ext	L1_T12_Lat_Bending	L1_T12_axial_rotation	Abs_r3	Abs_r2	Abs_r1	Abs_t1	Abs_t2	neck_flexion	neck_bending	neck_rotation	arm_flex_r	arm_add_r	arm_rot_r	elbow_flex_r	pro_sup_r	wrist_flex_r	wrist_dev_r	arm_flex_l	arm_add_l	arm_rot_l	elbow_flex_l	pro_sup_l	wrist_flex_l	wrist_dev_l
0.000000	-1.656410	-4.286911	93.365189	0.144244	0.876804	0.710992	3.216044	-2.964370	-15.738618	13.459593	0.234914	28.380828	18.192933	0.000000	5.311332	1.640334	6.531031	15.167195	0.264717	26.010022	-9.177428	0.000000	-0.136094	0.248201	0.538311	-0.252740	0.330107	0.571956	-0.223588	0.603475	0.571956	-0.155542	0.603475	0.471023	-0.126377	0.506131	0.437378	-0.077764	0.384463	0.403734	-0.972104	2.807696	2.993927	0.000000	0.000000	27.883927	3.240584	1.109006	8.698308	-10.294695	124.018251	3.438889	1.244038	-4.090613	-8.193089	10.284316	-7.052767	123.741947	8.628028	3.811701	-8.563600	-12.251245
0.016667	-2.012021	-3.919170	93.433980	0.144298	0.876903	0.711411	2.815406	-3.327256	-16.219340	13.633989	0.237958	28.930605	18.222624	0.000000	4.909035	1.958342	5.913254	15.161870	0.264625	26.670566	-8.247847	0.000000	-0.185705	0.211850	0.556040	-0.344873	0.281761	0.590792	-0.305095	0.515093	0.590792	-0.212242	0.515093	0.486535	-0.172446	0.432005	0.451782	-0.106112	0.328156	0.417030	-1.326474	2.396493	3.092527	0.000000	0.000000	27.788785	2.907991	0.662449	8.592819	-10.175889	123.379333	3.373071	1.255409	-4.029249	-8.273903	10.308069	-6.980653	126.238474	7.973846	3.587545	-9.113288	-11.930060
0.033333	-2.295576	-3.660782	93.469405	0.144389	0.876898	0.711770	2.534468	-3.616621	-16.588660	13.774240	0.240406	29.380370	18.252194	0.000000	4.621745	2.212220	5.426524	15.152408	0.264459	27.201508	-7.526859	0.000000	-0.221276	0.182518	0.568053	-0.410931	0.242749	0.603557	-0.363534	0.443775	0.603557	-0.252896	0.443775	0.497047	-0.205476	0.372191	0.461543	-0.126437	0.282721	0.426040	-1.580549	2.064684	3.159342	0.000000	0.000000	27.720554	2.695657	0.400983	8.527530	-10.082164	122.992610	3.335739	1.269315	-4.001011	-8.328568	10.322239	-6.955104	128.043357	7.508066	3.418517	-9.533882	-11.700164
0.050000	-2.513777	-3.499041	93.476248	0.144514	0.876804	0.712072	2.359146	-3.839100	-16.858304	13.883360	0.242310	29.739086	18.281466	0.000000	4.436402	2.407673	5.059064	15.139744	0.264238	27.612936	-6.994341	0.000000	-0.244409	0.159483	0.575400	-0.453891	0.212112	0.611363	-0.401539	0.387767	0.611363	-0.279335	0.387767	0.503475	-0.226958	0.325218	0.467513	-0.139655	0.247039	0.431550	-1.745786	1.804103	3.200204	0.000000	0.000000	27.676113	2.588786	0.297335	8.497297	-10.011095	122.822477	3.324877	1.285429	-4.001599	-8.359818	10.329025	-6.971171	129.227729	7.212008	3.300035	-9.836474	-11.548492
0.066667	-2.673322	-3.421241	93.459295	0.144670	0.876635	0.712323	2.275354	-4.001327	-17.040001	13.964359	0.243724	30.015721	18.310267	0.000000	4.339947	2.550409	4.799099	15.124814	0.263978	27.914940	-6.630171	0.000000	-0.256709	0.142022	0.579130	-0.476733	0.188889	0.615326	-0.421747	0.345312	0.615326	-0.293392	0.345312	0.506739	-0.238380	0.289611	0.470543	-0.146683	0.219992	0.434348	-1.833644	1.606581	3.220948	0.000000	0.000000	27.652345	2.572582	0.324229	8.496980	-9.960260	122.833329	3.338471	1.303422	-4.026716	-8.370386	10.330627	-7.023907	129.862723	7.066992	3.227517	-10.032152	-11.461977
0.083333	-2.780911	-3.414675	93.423331	0.144853	0.876406	0.712527	2.269007	-4.109936	-17.145477	14.020251	0.244700	30.219239	18.338419	0.000000	4.319322	2.646133	4.634850	15.108550	0.263694	28.117612	-6.414226	0.000000	-0.259779	0.129413	0.580291	-0.482436	0.172120	0.616559	-0.426792	0.314656	0.616559	-0.296902	0.314656	0.507755	-0.241231	0.263900	0.471487	-0.148438	0.200461	0.435218	-1.855578	1.463950	3.227405	0.000000	0.000000	27.646131	2.632248	0.454394	8.521437	-9.927236	122.989560	3.374505	1.322966	-4.072062	-8.363007	10.329243	-7.108364	130.019473	7.054335	3.196381	-10.132007	-11.427554
